<svg width="26" height="26" viewBox="0 0 26 26" fill="none" xmlns="http://www.w3.org/2000/svg">
<mask id="path-1-inside-1_1888_3581" fill="white">
<path fill-rule="evenodd" clip-rule="evenodd" d="M18.2942 7.19788C18.2943 7.89427 18.1572 8.58386 17.8908 9.22726C17.6243 9.87067 17.2338 10.4553 16.7414 10.9478C16.2491 11.4402 15.6645 11.8309 15.0212 12.0975C14.3778 12.364 13.6882 12.5013 12.9919 12.5013C11.5854 12.5015 10.2366 11.9429 9.24197 10.9485C8.24738 9.95415 7.68854 8.60539 7.6884 7.19897C7.68833 6.50258 7.82542 5.81299 8.09185 5.16959C8.35828 4.52618 8.74883 3.94155 9.2412 3.44908C10.2356 2.45449 11.5844 1.89565 12.9908 1.89551C14.3972 1.89536 15.7461 2.45392 16.7407 3.44831C17.7353 4.4427 18.2941 5.79146 18.2942 7.19788ZM12.9913 14.1236C5.3549 14.1236 2.3844 18.9835 2.3844 21.2444C2.3844 23.5042 8.70782 24.1066 12.9913 24.1066C17.2748 24.1066 23.5982 23.5042 23.5982 21.2444C23.5982 18.9835 20.6277 14.1236 12.9913 14.1236Z"/>
</mask>
<path d="M12.9919 12.5013L12.992 13.5013L12.9919 12.5013ZM7.6884 7.19897L8.6884 7.19886L7.6884 7.19897ZM9.2412 3.44908L8.53403 2.74204L9.2412 3.44908ZM17.2942 7.19799C17.2943 7.76305 17.183 8.3226 16.9669 8.84467L18.8147 9.60985C19.1314 8.84511 19.2943 8.02549 19.2942 7.19778L17.2942 7.19799ZM16.9669 8.84467C16.7507 9.36675 16.4338 9.84113 16.0342 10.2407L17.4486 11.6548C18.0338 11.0695 18.498 10.3746 18.8147 9.60985L16.9669 8.84467ZM16.0342 10.2407C15.6347 10.6403 15.1604 10.9573 14.6384 11.1736L15.4039 13.0213C16.1686 12.7045 16.8634 12.2401 17.4486 11.6548L16.0342 10.2407ZM14.6384 11.1736C14.1163 11.3899 13.5568 11.5013 12.9918 11.5013L12.992 13.5013C13.8197 13.5013 14.6393 13.3381 15.4039 13.0213L14.6384 11.1736ZM12.9918 11.5013C11.8506 11.5015 10.756 11.0482 9.94901 10.2414L8.53494 11.6557C9.71708 12.8376 11.3203 13.5015 12.992 13.5013L12.9918 11.5013ZM9.94901 10.2414C9.14197 9.43449 8.68852 8.34007 8.6884 7.19886L6.6884 7.19907C6.68857 8.87071 7.35279 10.4738 8.53494 11.6557L9.94901 10.2414ZM8.6884 7.19886C8.68834 6.6338 8.79958 6.07425 9.01577 5.55218L7.16793 4.787C6.85126 5.55174 6.68831 6.37136 6.6884 7.19907L8.6884 7.19886ZM9.01577 5.55218C9.23196 5.0301 9.54886 4.55572 9.94838 4.15611L8.53403 2.74204C7.9488 3.32738 7.48461 4.02226 7.16793 4.787L9.01577 5.55218ZM9.94838 4.15611C10.7553 3.34908 11.8497 2.89562 12.9909 2.89551L12.9907 0.895508C11.319 0.895679 9.71593 1.5599 8.53403 2.74204L9.94838 4.15611ZM12.9909 2.89551C14.1321 2.89539 15.2266 3.34862 16.0336 4.15549L17.4477 2.74113C16.2655 1.55923 14.6623 0.895337 12.9907 0.895508L12.9909 2.89551ZM16.0336 4.15549C16.8407 4.96236 17.2941 6.05678 17.2942 7.19799L19.2942 7.19778C19.2941 5.52614 18.6298 3.92304 17.4477 2.74113L16.0336 4.15549ZM12.9913 13.1236C4.92387 13.1236 1.3844 18.3173 1.3844 21.2444H3.3844C3.3844 19.6497 5.78593 15.1236 12.9913 15.1236V13.1236ZM1.3844 21.2444C1.3844 22.3521 2.17357 23.0766 2.94595 23.5148C3.74075 23.9656 4.78498 24.2783 5.88107 24.5026C8.09139 24.9549 10.8187 25.1066 12.9913 25.1066V23.1066C10.8805 23.1066 8.30429 22.957 6.28202 22.5432C5.26182 22.3344 4.45748 22.0728 3.93277 21.7752C3.38565 21.4648 3.3844 21.2666 3.3844 21.2444H1.3844ZM12.9913 25.1066C15.164 25.1066 17.8912 24.9549 20.1016 24.5026C21.1977 24.2783 22.2419 23.9656 23.0367 23.5148C23.8091 23.0766 24.5982 22.3521 24.5982 21.2444H22.5982C22.5982 21.2666 22.597 21.4648 22.0499 21.7752C21.5252 22.0728 20.7208 22.3344 19.7006 22.5432C17.6783 22.957 15.1022 23.1066 12.9913 23.1066V25.1066ZM24.5982 21.2444C24.5982 18.3173 21.0588 13.1236 12.9913 13.1236V15.1236C20.1967 15.1236 22.5982 19.6497 22.5982 21.2444H24.5982Z" fill="white" mask="url(#path-1-inside-1_1888_3581)"/>
</svg>
