<svg width="26" height="26" viewBox="0 0 26 26" fill="none" xmlns="http://www.w3.org/2000/svg">
<circle cx="19" cy="5" r="3" fill="#FF7C7C"/>
<path fill-rule="evenodd" clip-rule="evenodd" d="M20.6053 9.73674V16.2069C20.9494 16.3013 21.3235 16.497 21.6493 16.8346C22.1528 17.3564 22.5 18.1731 22.5 19.3636C22.5 19.6398 22.2761 19.8636 22 19.8636H16.3202C16.2478 20.6861 15.9947 21.4976 15.5422 22.1489C14.9876 22.9472 14.132 23.5 13 23.5C11.8219 23.5 10.9612 22.9528 10.4146 22.1435C9.97284 21.4894 9.74312 20.6785 9.67777 19.8636H4C3.72386 19.8636 3.5 19.6398 3.5 19.3636C3.5 18.8579 3.60264 18.0934 3.93177 17.4354C4.2091 16.881 4.67573 16.3594 5.39474 16.192V8.90909C5.39474 8.89576 5.39527 8.88243 5.39634 8.86914C5.48269 7.79184 5.9678 6.20732 7.14327 4.88387C8.33398 3.54328 10.2081 2.5 13 2.5C13.5708 2.5 14.1032 2.54361 14.5993 2.62445C14.4368 2.92475 14.3042 3.24356 14.2054 3.5769C13.8291 3.52684 13.4278 3.5 13 3.5C10.4866 3.5 8.88707 4.42642 7.89094 5.54795C6.88685 6.67843 6.47068 8.03693 6.39474 8.9297V16.6364C6.39474 16.9125 6.17088 17.1364 5.89474 17.1364C5.3883 17.1364 5.05752 17.4202 4.82612 17.8828C4.67345 18.188 4.58284 18.5423 4.53725 18.8636H10.1579C10.434 18.8636 10.6579 19.0875 10.6579 19.3636C10.6579 20.2058 10.8545 21.0082 11.2433 21.5838C11.6177 22.1382 12.1781 22.5 13 22.5C13.7627 22.5 14.3281 22.1438 14.721 21.5784C15.1242 20.998 15.3421 20.1947 15.3421 19.3636C15.3421 19.0875 15.566 18.8636 15.8421 18.8636H21.4733C21.396 18.1809 21.1634 17.7712 20.9297 17.529C20.6348 17.2235 20.2938 17.1364 20.1053 17.1364C19.8291 17.1364 19.6053 16.9125 19.6053 16.6364V9.96374C19.9507 9.92206 20.2852 9.84516 20.6053 9.73674Z" fill="white"/>
</svg>
