<svg width="126" height="27" viewBox="0 0 126 27" fill="none" xmlns="http://www.w3.org/2000/svg">
<path d="M61.4868 18.5842C59.8645 18.8216 58.5153 18.355 56.994 17.7476C51.7507 15.6539 46.3802 13.2881 41.641 10.2028C41.5147 10.1205 37.4325 7.63973 37.6904 6.90289C38.236 5.34418 41.2671 5.06272 42.5396 5.01282C49.5831 4.7366 55.9193 8.95318 59.2559 14.9589" stroke="#FF7C7C" stroke-width="9" stroke-linecap="round"/>
<path d="M63.1599 17.19C66.3844 14.8612 69.2415 12.0691 72.3779 9.62971C73.738 8.57183 74.8552 7.21289 76.7003 7.21289C79.0093 7.21289 81.8441 7.54118 83.7338 8.97903C87.3753 11.7497 79.6309 15.2249 77.5369 16.0126C73.8728 17.3908 69.962 18.294 66.1654 19.235C65.6597 19.3604 65.055 19.256 64.8331 19.6998" stroke="#FF7C7C" stroke-width="9" stroke-linecap="round"/>
<path d="M0 19.6387C0 15.2204 3.58172 11.6387 8 11.6387H117.207C121.625 11.6387 125.207 15.2204 125.207 19.6387V26.8666H0V19.6387Z" fill="#FFE6C1"/>
<rect y="23.4824" width="125.207" height="3.38397" fill="#FF7C7C"/>
<rect x="58.3735" y="11.6387" width="8.45994" height="15.2279" fill="#FF7C7C"/>
</svg>
