<svg width="20" height="20" viewBox="0 0 20 20" fill="none" xmlns="http://www.w3.org/2000/svg">
<path fill-rule="evenodd" clip-rule="evenodd" d="M15.923 4.61531C15.923 5.33753 15.3375 5.923 14.6153 5.923C13.8931 5.923 13.3076 5.33753 13.3076 4.61531C13.3076 3.89309 13.8931 3.30762 14.6153 3.30762C15.3375 3.30762 15.923 3.89309 15.923 4.61531ZM16.923 4.61531C16.923 5.88981 15.8898 6.923 14.6153 6.923C13.9009 6.923 13.2623 6.59839 12.839 6.08861L6.84859 9.4164C6.89715 9.60278 6.923 9.79834 6.923 9.99992C6.923 10.3165 6.85925 10.6182 6.74389 10.8929L12.7911 13.971C13.2132 13.427 13.8734 13.0768 14.6153 13.0768C15.8898 13.0768 16.923 14.11 16.923 15.3845C16.923 16.659 15.8898 17.6922 14.6153 17.6922C13.3408 17.6922 12.3076 16.659 12.3076 15.3845C12.3076 15.2097 12.3271 15.0394 12.3639 14.8757L6.15763 11.7165C5.74889 12.084 5.20821 12.3076 4.61531 12.3076C3.34081 12.3076 2.30762 11.2744 2.30762 9.99992C2.30762 8.72542 3.34081 7.69223 4.61531 7.69223C5.32961 7.69223 5.96811 8.01677 6.39141 8.52643L12.382 5.19859C12.3334 5.01228 12.3076 4.81681 12.3076 4.61531C12.3076 3.34081 13.3408 2.30762 14.6153 2.30762C15.8898 2.30762 16.923 3.34081 16.923 4.61531ZM4.61531 11.3076C5.33753 11.3076 5.923 10.7221 5.923 9.99992C5.923 9.27771 5.33753 8.69223 4.61531 8.69223C3.89309 8.69223 3.30762 9.27771 3.30762 9.99992C3.30762 10.7221 3.89309 11.3076 4.61531 11.3076ZM14.6153 16.6922C15.3375 16.6922 15.923 16.1068 15.923 15.3845C15.923 14.6623 15.3375 14.0768 14.6153 14.0768C13.8931 14.0768 13.3076 14.6623 13.3076 15.3845C13.3076 16.1068 13.8931 16.6922 14.6153 16.6922Z" fill="#5F5F5F"/>
</svg>
