<svg width="16" height="16" viewBox="0 0 16 16" fill="none" xmlns="http://www.w3.org/2000/svg">
<path fill-rule="evenodd" clip-rule="evenodd" d="M11.6963 2.59874C11.5406 2.44524 11.2905 2.44521 11.1347 2.59868L3.43627 10.1847C3.39039 10.2299 3.35611 10.2855 3.33634 10.3468L2.43244 13.1496L5.2957 12.2607C5.35673 12.2418 5.41234 12.2085 5.45786 12.1636L13.1409 4.59277C13.2999 4.43613 13.2999 4.17969 13.141 4.02301L11.6963 2.59874ZM10.5732 2.02885C11.0404 1.56843 11.7908 1.56852 12.2579 2.02904L13.7026 3.4533C14.1794 3.92335 14.1793 4.69266 13.7024 5.1626L6.01936 12.7335C5.8828 12.868 5.71599 12.9679 5.53289 13.0247L1.93389 14.142C1.79129 14.1863 1.63591 14.1475 1.53091 14.0413C1.42591 13.9352 1.38877 13.7794 1.4346 13.6373L2.57495 10.1013C2.63426 9.91735 2.73712 9.75048 2.87477 9.61484L10.5732 2.02885Z" fill="#5F5F5F"/>
<path fill-rule="evenodd" clip-rule="evenodd" d="M6 13.9996C6 13.7787 6.17909 13.5996 6.4 13.5996L14.8 13.5996C15.0209 13.5996 15.2 13.7787 15.2 13.9996C15.2 14.2205 15.0209 14.3996 14.8 14.3996L6.4 14.3996C6.17909 14.3996 6 14.2205 6 13.9996Z" fill="#5F5F5F"/>
</svg>
